<svg width="24" height="24" viewBox="0 0 24 24" fill="none" xmlns="http://www.w3.org/2000/svg">
<path d="M9.59844 7.20039V16.8004M14.3984 7.20039V16.8004M7.19844 9.60039H16.7984M7.19844 14.4004H16.7984M2.39844 7.20039V4.80039C2.39844 4.16387 2.65129 3.55342 3.10138 3.10333C3.55147 2.65325 4.16192 2.40039 4.79844 2.40039H7.19844M2.39844 16.8004V19.2004C2.39844 19.8369 2.65129 20.4474 3.10138 20.8974C3.55147 21.3475 4.16192 21.6004 4.79844 21.6004H7.19844M16.7984 2.40039H19.1984C19.835 2.40039 20.4454 2.65325 20.8955 3.10333C21.3456 3.55342 21.5984 4.16387 21.5984 4.80039V7.20039M16.7984 21.6004H19.1984C19.835 21.6004 20.4454 21.3475 20.8955 20.8974C21.3456 20.4474 21.5984 19.8369 21.5984 19.2004V16.8004" stroke="white" stroke-width="1.2" stroke-linecap="round" stroke-linejoin="round"/>
</svg>
