<svg width="24" height="24" viewBox="0 0 24 24" fill="none" xmlns="http://www.w3.org/2000/svg">
<path d="M2.39844 7.20234V4.80234C2.39844 4.16582 2.65129 3.55537 3.10138 3.10529C3.55147 2.6552 4.16192 2.40234 4.79844 2.40234H7.19844M2.39844 16.8023V19.2023C2.39844 19.8389 2.65129 20.4493 3.10138 20.8994C3.55147 21.3495 4.16192 21.6023 4.79844 21.6023H7.19844M16.7984 2.40234H19.1984C19.835 2.40234 20.4454 2.6552 20.8955 3.10529C21.3456 3.55537 21.5984 4.16582 21.5984 4.80234V7.20234M16.7984 21.6023H19.1984C19.835 21.6023 20.4454 21.3495 20.8955 20.8994C21.3456 20.4493 21.5984 19.8389 21.5984 19.2023V16.8023" stroke="white" stroke-width="1.2" stroke-linecap="round" stroke-linejoin="round"/>
<circle cx="11.7912" cy="7.34391" r="1.94118" stroke="white" stroke-width="1.2"/>
<path d="M9.25 19.2034C9.25 17.5093 9.75824 14.1211 11.7912 14.1211C13.8241 14.1211 14.3324 17.5093 14.3324 19.2034" stroke="white" stroke-width="1.2" stroke-linecap="round"/>
<path d="M15.1749 14.4011C15.1749 12.8335 14.4935 11.4647 13.4808 10.7324M8.39844 14.4011C8.39844 12.8335 9.07981 11.4647 10.0926 10.7324" stroke="white" stroke-width="1.2" stroke-linecap="round"/>
</svg>
